REM MD5 c2b3cc6d6d4f89d7102a5e989bb74705
FILE "Euro Demo 56 (Europe).bin" BINARY
  TRACK 01 MODE2/2352
    INDEX 01 00:00:00
  TRACK 02 AUDIO
    INDEX 00 35:28:02
    INDEX 01 35:30:02
  TRACK 03 AUDIO
    INDEX 00 38:17:16
    INDEX 01 38:19:16
REM LEADOUT 41:20:48
